<svg xmlns="http://www.w3.org/2000/svg" width="147.027" height="40"><g transform="translate(-.328 -.219)"><path data-name="Caminho 5" d="m62.703 1.698-8.537 24.573h-.195L45.434 1.698H34.956l14.269 37.063h9.484L73.006 1.698Zm19.96 23.5 4.082-12.05h.194l4.092 12.05Zm9.441-23.5H81.747L67.493 38.761h10.063l2.456-6.186h13.644l2.474 6.186h10.226ZM23.039 21.214c0 4.818-.345 10.079-6.539 10.079s-6.538-5.261-6.538-10.079V1.698H.328v20.848c0 4.768.2 9.487 3.885 13.074 3.1 3.049 7.964 4.129 12.287 4.129s9.192-1.081 12.291-4.129c3.685-3.587 3.882-8.306 3.882-13.074V1.698h-9.634Z" fill="#004b78"/><ellipse data-name="Elipse 6" cx="19.992" cy="20" rx="19.992" ry="20" transform="translate(107.371 .219)" fill="#ffd000"/></g></svg>